<svg width="118" height="22" viewBox="0 0 118 22" fill="none" xmlns="http://www.w3.org/2000/svg">
    <path
        d="M3.23665 10.7894H0.70293L1.50005 7.77173H3.23665V5.40882C3.23665 4.00436 3.70164 2.85612 4.63162 1.9641C5.58058 1.07208 6.86167 0.626068 8.4749 0.626068C8.96836 0.626068 9.49977 0.701985 10.0691 0.853818C10.6385 0.986673 11.113 1.16698 11.4926 1.39472L10.8093 4.12773C10.5626 4.01385 10.2495 3.90947 9.86987 3.81457C9.49028 3.71967 9.13917 3.67223 8.81652 3.67223C8.22817 3.67223 7.77267 3.82406 7.45002 4.12773C7.14636 4.43139 6.99452 4.8774 6.99452 5.46576V7.77173H11.094L10.3254 10.7894H6.99452V21.5791H3.23665V10.7894Z"
        fill="#05E09A" />
    <path
        d="M12.5266 11.6435C12.5266 11.0741 12.4791 10.5806 12.3842 10.1631C12.3083 9.74556 12.147 9.28057 11.9003 8.76813L15.2311 7.48704C15.4019 7.7907 15.5538 8.15131 15.6866 8.56885C15.8384 8.98639 15.9239 9.347 15.9428 9.65066C16.4553 8.92946 16.9867 8.38855 17.5371 8.02794C18.1065 7.66734 18.7517 7.48704 19.473 7.48704C20.0423 7.48704 20.5358 7.56295 20.9533 7.71479C21.3899 7.86662 21.8454 8.12284 22.3198 8.48344L20.9249 11.0741C20.6022 10.8843 20.308 10.7515 20.0423 10.6755C19.7766 10.5806 19.4824 10.5332 19.1598 10.5332C18.1729 10.5332 17.4422 10.8369 16.9677 11.4442C16.5122 12.0515 16.2845 12.972 16.2845 14.2057V21.5791H12.5266V11.6435ZM29.2689 21.8638C26.9914 21.8638 25.1884 21.228 23.8598 19.9564C22.5503 18.6847 21.8955 16.9576 21.8955 14.775C21.8955 13.3516 22.1612 12.0895 22.6926 10.9887C23.224 9.8879 24.0116 9.03384 25.0555 8.42651C26.0994 7.80019 27.3615 7.48704 28.8418 7.48704C30.2843 7.48704 31.5369 7.7907 32.5997 8.39804C33.6626 8.98639 34.4692 9.8025 35.0196 10.8464C35.57 11.8712 35.8452 13.0195 35.8452 14.2911C35.8452 14.9174 35.6364 15.4014 35.2188 15.743C34.8203 16.0656 34.2604 16.2269 33.5392 16.2269H25.6249C25.6249 17.0051 25.957 17.6314 26.6213 18.1059C27.3045 18.5804 28.1871 18.8176 29.2689 18.8176C30.1609 18.8176 30.9106 18.6942 31.5179 18.4475C32.1442 18.1818 32.6946 17.8117 33.1691 17.3372L35.048 19.33C34.4217 20.1272 33.6151 20.7535 32.6282 21.209C31.6413 21.6455 30.5215 21.8638 29.2689 21.8638ZM32.1158 13.2947C32.1158 12.4596 31.8026 11.7858 31.1763 11.2734C30.5689 10.742 29.7908 10.4763 28.8418 10.4763C27.9308 10.4763 27.1622 10.742 26.5359 11.2734C25.9285 11.7858 25.6249 12.4596 25.6249 13.2947H32.1158ZM43.9069 21.8638C41.6294 21.8638 39.8264 21.228 38.4979 19.9564C37.1883 18.6847 36.5335 16.9576 36.5335 14.775C36.5335 13.3516 36.7992 12.0895 37.3306 10.9887C37.8621 9.8879 38.6497 9.03384 39.6936 8.42651C40.7374 7.80019 41.9995 7.48704 43.4799 7.48704C44.9223 7.48704 46.1749 7.7907 47.2378 8.39804C48.3006 8.98639 49.1072 9.8025 49.6576 10.8464C50.208 11.8712 50.4832 13.0195 50.4832 14.2911C50.4832 14.9174 50.2744 15.4014 49.8569 15.743C49.4583 16.0656 48.8985 16.2269 48.1772 16.2269H40.2629C40.2629 17.0051 40.5951 17.6314 41.2593 18.1059C41.9426 18.5804 42.8251 18.8176 43.9069 18.8176C44.799 18.8176 45.5486 18.6942 46.156 18.4475C46.7823 18.1818 47.3327 17.8117 47.8071 17.3372L49.6861 19.33C49.0598 20.1272 48.2532 20.7535 47.2662 21.209C46.2793 21.6455 45.1596 21.8638 43.9069 21.8638ZM46.7538 13.2947C46.7538 12.4596 46.4406 11.7858 45.8143 11.2734C45.207 10.742 44.4289 10.4763 43.4799 10.4763C42.5689 10.4763 41.8002 10.742 41.1739 11.2734C40.5666 11.7858 40.2629 12.4596 40.2629 13.2947H46.7538ZM52.1791 0.683006H55.937V21.5791H52.1791V0.683006ZM63.7852 21.8638C62.6085 21.8638 61.5552 21.5886 60.6252 21.0382C59.6952 20.4878 58.9645 19.6906 58.4331 18.6468C57.9017 17.6029 57.636 16.3598 57.636 14.9174C57.636 13.3801 57.9017 12.0515 58.4331 10.9318C58.9835 9.81199 59.7427 8.95792 60.7106 8.36957C61.6975 7.78122 62.8458 7.48704 64.1553 7.48704C65.6926 7.48704 66.9737 8.0659 67.9986 9.22363V7.77173H71.6141V17.7073C71.6141 18.3716 71.6711 18.922 71.785 19.3585C71.8988 19.795 72.0791 20.2316 72.3259 20.6681L69.2797 21.8638C68.7103 21.2374 68.3877 20.5257 68.3118 19.7286H68.2548C67.7234 20.4119 67.0686 20.9433 66.2905 21.3229C65.5313 21.6835 64.6962 21.8638 63.7852 21.8638ZM64.5539 18.8745C65.6547 18.8745 66.4898 18.5234 67.0591 17.8212C67.6285 17.1 67.9132 16.1415 67.9132 14.9459V14.4334C67.9132 13.3326 67.6285 12.4026 67.0591 11.6435C66.5087 10.8653 65.7116 10.4763 64.6678 10.4763C63.6049 10.4763 62.7888 10.8558 62.2195 11.615C61.6691 12.3742 61.3939 13.475 61.3939 14.9174C61.3939 16.208 61.6596 17.1949 62.191 17.8781C62.7414 18.5424 63.529 18.8745 64.5539 18.8745ZM84.5941 21.8638C84.2715 21.2944 84.0342 20.706 83.8824 20.0987C83.7495 19.4724 83.6831 18.7702 83.6831 17.992V13.4085C83.6831 11.4916 82.886 10.5332 81.2917 10.5332C80.3428 10.5332 79.5741 10.9033 78.9858 11.6435C78.4164 12.3837 78.1317 13.3231 78.1317 14.4619V21.5791H74.3738V11.6435C74.3738 11.0741 74.3264 10.5806 74.2315 10.1631C74.1556 9.74556 73.9942 9.28057 73.7475 8.76813L77.0784 7.48704C77.2492 7.7907 77.401 8.15131 77.5339 8.56885C77.6857 8.98639 77.7711 9.347 77.7901 9.65066C78.3405 9.00537 79.0142 8.48344 79.8114 8.08488C80.6275 7.68632 81.491 7.48704 82.402 7.48704C84.1671 7.48704 85.4482 7.99948 86.2453 9.02435C87.0424 10.0302 87.441 11.4916 87.441 13.4085V17.9066C87.441 18.9505 87.6308 19.852 88.0104 20.6111L84.5941 21.8638ZM97.0717 21.8638C94.6803 21.8638 92.8108 21.228 91.4633 19.9564C90.1158 18.6847 89.442 16.9292 89.442 14.6896C89.442 12.4311 90.1063 10.666 91.4348 9.39444C92.7634 8.12284 94.5949 7.48704 96.9293 7.48704C98.0111 7.48704 99.017 7.66734 99.947 8.02794C100.877 8.36957 101.627 8.82507 102.196 9.39444L100.915 11.8712C99.8141 10.9792 98.5425 10.5332 97.1001 10.5332C95.9044 10.5332 94.965 10.8748 94.2817 11.5581C93.5985 12.2413 93.2568 13.2852 93.2568 14.6896C93.2568 16.0751 93.5985 17.1095 94.2817 17.7927C94.9839 18.476 95.9519 18.8176 97.1855 18.8176C97.8878 18.8176 98.5141 18.7132 99.0645 18.5044C99.6338 18.2767 100.175 17.9161 100.687 17.4226L102.652 19.4724C102.025 20.2126 101.219 20.8009 100.232 21.2374C99.2448 21.655 98.1914 21.8638 97.0717 21.8638ZM110.731 21.8638C108.453 21.8638 106.65 21.228 105.322 19.9564C104.012 18.6847 103.357 16.9576 103.357 14.775C103.357 13.3516 103.623 12.0895 104.154 10.9887C104.686 9.8879 105.473 9.03384 106.517 8.42651C107.561 7.80019 108.823 7.48704 110.304 7.48704C111.746 7.48704 112.999 7.7907 114.061 8.39804C115.124 8.98639 115.931 9.8025 116.481 10.8464C117.032 11.8712 117.307 13.0195 117.307 14.2911C117.307 14.9174 117.098 15.4014 116.681 15.743C116.282 16.0656 115.722 16.2269 115.001 16.2269H107.087C107.087 17.0051 107.419 17.6314 108.083 18.1059C108.766 18.5804 109.649 18.8176 110.731 18.8176C111.623 18.8176 112.372 18.6942 112.98 18.4475C113.606 18.1818 114.156 17.8117 114.631 17.3372L116.51 19.33C115.883 20.1272 115.077 20.7535 114.09 21.209C113.103 21.6455 111.983 21.8638 110.731 21.8638ZM113.578 13.2947C113.578 12.4596 113.264 11.7858 112.638 11.2734C112.031 10.742 111.253 10.4763 110.304 10.4763C109.393 10.4763 108.624 10.742 107.998 11.2734C107.39 11.7858 107.087 12.4596 107.087 13.2947H113.578Z"
        fill="#04004D" />
</svg>
    